<svg xmlns="http://www.w3.org/2000/svg" version="1.1" xmlns:xlink="http://www.w3.org/1999/xlink" xmlns:svgjs="http://svgjs.dev/svgjs" width="1000" height="166" viewBox="0 0 1000 166"><g transform="matrix(1,0,0,1,-0.6060606060606233,0.3037834427574353)"><svg xmlns="http://www.w3.org/2000/svg" version="1.1" xmlns:xlink="http://www.w3.org/1999/xlink" xmlns:svgjs="http://svgjs.com/svgjs" viewBox="0 0 396 66" data-background-color="#ffffff" preserveAspectRatio="xMidYMid meet" height="166" width="1000"><defs></defs><g id="tight-bounds" transform="matrix(1,0,0,1,0.2400000000000091,-0.12078136880717238)"><svg viewBox="0 0 395.52 66.24156273761434" height="66.24156273761434" width="395.52"><g><svg viewBox="0 0 661.3217824090495 110.75796" height="66.24156273761434" width="395.52"><g transform="matrix(1,0,0,1,265.8017824090496,10.117237152252542)"><svg viewBox="0 0 395.52 90.52348569549491" height="90.52348569549491" width="395.52"><g><svg viewBox="0 0 395.52 90.52348569549491" height="90.52348569549491" width="395.52"><g><svg viewBox="0 0 395.52 90.52348569549491" height="90.52348569549491" width="395.52"><g transform="matrix(1,0,0,1,0,0)"><svg width="395.52" viewBox="-0.4 -34.3 152.04 34.8" height="90.52348569549491" data-palette-color="#27292a"><path d="M29.55-33.85L16.9 0 12.25 0-0.4-33.85 5.95-33.85 10.15-21.75Q11.75-17.05 12.9-13.48 14.05-9.9 14.65-8L14.65-8Q15.2-9.9 16.32-13.38 17.45-16.85 19.15-21.65L19.15-21.65 23.5-33.85 29.55-33.85ZM32.6 0L32.6-33.85 38.55-33.85 38.55 0 32.6 0ZM45.55 0L45.55-33.85Q45.9-33.85 47.05-33.88 48.2-33.9 49.65-33.9 51.09-33.9 52.65-33.93 54.2-33.95 55.34-33.95L55.34-33.95Q63.84-33.95 67.95-29.73 72.05-25.5 72.05-17.15L72.05-17.15Q72.05-8.8 67.84-4.35 63.65 0.1 54.7 0.1L54.7 0.1Q53.15 0.1 51.67 0.08 50.2 0.05 48.97 0.05 47.75 0.05 46.84 0.03 45.95 0 45.55 0L45.55 0ZM54.65-29.5Q53.5-29.5 52.72-29.48 51.95-29.45 51.5-29.45L51.5-29.45 51.5-4.4Q52.05-4.35 52.92-4.35 53.8-4.35 55.45-4.35L55.45-4.35Q60.7-4.35 63.15-7.43 65.59-10.5 65.59-16.6L65.59-16.6Q65.59-19.5 65.02-21.88 64.45-24.25 63.12-25.95 61.8-27.65 59.72-28.58 57.65-29.5 54.65-29.5L54.65-29.5ZM77.69 0L77.69-33.85 97.79-33.85 97.79-29.35 83.64-29.35 83.64-19.9 95.29-19.9 94.54-15.35 83.64-15.35 83.64-4.5 98.54-4.5 98.54 0 77.69 0ZM116.49-34.3Q120.24-34.3 122.89-33.1 125.54-31.9 127.27-29.7 128.99-27.5 129.79-24.33 130.59-21.15 130.59-17.2L130.59-17.2Q130.59-13.3 129.72-10.08 128.84-6.85 127.02-4.55 125.19-2.25 122.41-0.98 119.64 0.3 115.84 0.3L115.84 0.3Q112.09 0.3 109.41-0.83 106.74-1.95 105.02-4.13 103.29-6.3 102.49-9.4 101.69-12.5 101.69-16.5L101.69-16.5Q101.69-20.4 102.56-23.68 103.44-26.95 105.27-29.33 107.09-31.7 109.89-33 112.69-34.3 116.49-34.3L116.49-34.3ZM115.79-29.7Q113.59-29.7 112.14-28.73 110.69-27.75 109.79-26.05 108.89-24.35 108.52-22.05 108.14-19.75 108.14-17.05L108.14-17.05Q108.14-14.5 108.49-12.2 108.84-9.9 109.77-8.15 110.69-6.4 112.31-5.35 113.94-4.3 116.54-4.3L116.54-4.3Q118.69-4.3 120.16-5.25 121.64-6.2 122.54-7.85 123.44-9.5 123.81-11.78 124.19-14.05 124.19-16.7L124.19-16.7Q124.19-19.25 123.84-21.6 123.49-23.95 122.56-25.75 121.64-27.55 120.02-28.63 118.39-29.7 115.79-29.7L115.79-29.7ZM143.44-25.5L143.44-25.5Q144.89-25.5 146.29-25.2 147.69-24.9 148.79-24.5L148.79-24.5Q150.09-24.05 151.19-23.55L151.19-23.55 149.49-19.65Q148.49-20.1 147.49-20.45L147.49-20.45Q146.64-20.75 145.61-21.03 144.59-21.3 143.59-21.3L143.59-21.3Q142.44-21.3 141.61-20.75 140.79-20.2 140.79-19.1L140.79-19.1Q140.79-16.25 144.94-14.65L144.94-14.65Q146.49-14.05 147.74-13.38 148.99-12.7 149.86-11.8 150.74-10.9 151.19-9.73 151.64-8.55 151.64-6.95L151.64-6.95Q151.64-5.55 151.06-4.2 150.49-2.85 149.36-1.8 148.24-0.75 146.61-0.13 144.99 0.5 142.94 0.5L142.94 0.5Q141.29 0.5 139.69 0.13 138.09-0.25 136.81-0.7 135.54-1.15 134.79-1.55L134.79-1.55 134.04-1.9 135.89-6.1 136.54-5.75Q137.19-5.35 138.19-4.9 139.19-4.45 140.34-4.08 141.49-3.7 142.44-3.7L142.44-3.7Q144.19-3.7 145.04-4.4 145.89-5.1 145.89-6.25L145.89-6.25Q145.89-7.55 144.96-8.63 144.04-9.7 142.19-10.4L142.19-10.4Q138.34-11.85 136.66-13.7 134.99-15.55 134.99-18.5L134.99-18.5Q134.99-19.9 135.64-21.18 136.29-22.45 137.41-23.43 138.54-24.4 140.09-24.95 141.64-25.5 143.44-25.5Z" opacity="1" transform="matrix(1,0,0,1,0,0)" fill="#27292a" class="undefined-text-0" data-fill-palette-color="primary" id="text-0"></path></svg></g></svg></g></svg></g></svg></g><g><svg viewBox="0 0 244.43135999999998 110.75796" height="110.75796" width="244.43135999999998"><g><svg xmlns="http://www.w3.org/2000/svg" version="1.1" data-icon="video" data-container-transform="translate(0 35)" viewBox="0 35 128 58" x="0" y="0" height="110.75796" width="244.43135999999998" class="icon-icon-0" fill="#fdc500" data-fill-palette-color="accent" id="icon-0"><path d="M3 0c-1.7 0-3 1.3-3 3v52c0 1.7 1.3 3 3 3h82c1.7 0 3-1.3 3-3v-52c0-1.7-1.3-3-3-3h-82z m113 12l-6 4.094v28l5.906 4 12-0.094 0.094-36h-12z m-26 4.094v28h18v-28h-18z" transform="translate(0 35)" fill="#fdc500" data-fill-palette-color="accent"></path></svg></g></svg></g></svg></g></svg><rect width="395.52" height="66.24156273761434" fill="transparent" stroke="transparent"></rect></g></svg></g></svg>