<svg xmlns="http://www.w3.org/2000/svg" version="1.1" xmlns:xlink="http://www.w3.org/1999/xlink" xmlns:svgjs="http://svgjs.dev/svgjs" width="1000" height="222" viewBox="0 0 1000 222"><g transform="matrix(1,0,0,1,-0.6060605794368712,-0.1577389692556892)"><svg viewBox="0 0 396 88" data-background-color="#ffffff" preserveAspectRatio="xMidYMid meet" height="222" width="1000" xmlns="http://www.w3.org/2000/svg" xmlns:xlink="http://www.w3.org/1999/xlink"><defs></defs><g id="tight-bounds" transform="matrix(1,0,0,1,0.2400000105430138,0.06252715898423844)"><svg viewBox="0 0 395.5199999999999 87.87494568203151" height="87.87494568203151" width="395.5199999999999"><g><svg viewBox="0 0 534.5791237941613 118.77050835902085" height="87.87494568203151" width="395.5199999999999"><g transform="matrix(1,0,0,1,0,16.414737407071627)"><svg viewBox="0 0 395.52 85.9410335448776" height="85.9410335448776" width="395.52"><g><svg viewBox="0 0 395.52 85.9410335448776" height="85.9410335448776" width="395.52"><g><svg viewBox="0 0 395.52 85.9410335448776" height="85.9410335448776" width="395.52"><g transform="matrix(1,0,0,1,0,0)"><svg width="395.52" viewBox="0.550000011920929 -35.45000076293945 165.44000244140625 35.95000076293945" height="85.9410335448776" data-palette-color="#3d4950"><path d="M9.3-1.05L0.55-34.35Q0.55-34.6 2.73-34.83 4.9-35.05 6.3-35.05L6.3-35.05Q11.85-35.05 12.1-33.6L12.1-33.6 16.4-11.6 20.45-33.6Q20.75-35.05 26.65-35.05L26.65-35.05Q28.1-35.05 30.3-34.85 32.5-34.65 32.5-34.4L32.5-34.4 23.65-1.3Q23.45-0.5 20.7-0.25L20.7-0.25Q16.45 0.2 12.98-0.08 9.5-0.35 9.3-1.05L9.3-1.05ZM35.4-8.6L38.85-8.6 38.85-26.4 35.3-26.4Q34.45-26.4 34.1-28.55L34.1-28.55Q33.95-29.6 33.95-30.7 33.95-31.8 34.1-32.85L34.1-32.85Q34.45-35 35.3-35L35.3-35 52.1-35Q52.95-35 53.25-32.85L53.25-32.85Q53.45-31.8 53.45-30.7 53.45-29.6 53.25-28.55L53.25-28.55Q52.95-26.4 52.1-26.4L52.1-26.4 48.75-26.4 48.75-8.6 52.25-8.6Q53.1-8.6 53.45-6.45L53.45-6.45Q53.65-5.4 53.65-4.3 53.65-3.2 53.45-2.15L53.45-2.15Q53.1 0 52.25 0L52.25 0 35.4 0Q34.55 0 34.25-2.15L34.25-2.15Q34.05-3.2 34.05-4.3 34.05-5.4 34.25-6.45L34.25-6.45Q34.55-8.6 35.4-8.6L35.4-8.6ZM57-2.3L57-2.3 57-32.3Q57-33.55 57.62-34.27 58.25-35 59.25-35L59.25-35 67.6-35Q75.55-35 79.67-31 83.8-27 83.8-18.4L83.8-18.4Q83.8 0 68.1 0L68.1 0 59.55 0Q57 0 57-2.3ZM67.1-25.5L66.6-25.5 66.6-10.55Q66.6-9.5 66.75-9.22 66.9-8.95 67.65-8.95L67.65-8.95Q70.4-8.95 71.82-11 73.25-13.05 73.25-17.82 73.25-22.6 71.77-24.05 70.3-25.5 67.1-25.5L67.1-25.5ZM97.59-21.1L104.04-21.1Q104.99-21.1 104.99-17.6L104.99-17.6Q104.99-16.55 104.77-15.13 104.54-13.7 103.94-13.7L103.94-13.7 97.59-13.7 97.59-8.7 106.79-8.7Q107.64-8.7 107.94-6.5L107.94-6.5Q108.09-5.55 108.09-4.48 108.09-3.4 107.79-1.7 107.49 0 106.79 0L106.79 0 89.69 0Q87.79 0 87.79-1.55L87.79-1.55 87.79-33.7Q87.79-35 88.94-35L88.94-35 106.84-35Q107.89-35 107.89-30.58 107.89-26.15 106.84-26.15L106.84-26.15 97.59-26.15 97.59-21.1ZM127.32 0.5Q120.29 0.5 115.87-4.1 111.44-8.7 111.44-17.53 111.44-26.35 115.92-30.9 120.39-35.45 127.47-35.45 134.54-35.45 138.89-30.98 143.24-26.5 143.24-17.43 143.24-8.35 138.79-3.93 134.34 0.5 127.32 0.5ZM127.34-25.85Q124.94-25.85 123.32-23.65 121.69-21.45 121.69-17.48 121.69-13.5 123.24-11.38 124.79-9.25 127.32-9.25 129.84-9.25 131.42-11.4 132.99-13.55 132.99-17.55 132.99-21.55 131.37-23.7 129.74-25.85 127.34-25.85ZM148.04-9L148.04-9Q152.09-6.55 154.44-6.55L154.44-6.55Q155.94-6.55 155.94-7.6L155.94-7.6Q155.94-8.35 153.34-9.55L153.34-9.55Q147.09-12.1 147.09-17.9L147.09-17.9Q147.09-21.6 149.79-23.55 152.49-25.5 156.26-25.5 160.04-25.5 162.66-24.7 165.29-23.9 165.29-22.6L165.29-22.6Q165.29-21.5 164.21-19.7 163.14-17.9 162.74-17.75L162.74-17.75Q160.59-18.95 158.09-18.95L158.09-18.95Q156.74-18.95 156.74-18L156.74-18Q156.74-17.4 157.26-16.98 157.79-16.55 159.19-15.93 160.59-15.3 161.51-14.8 162.44-14.3 163.59-13.4L163.59-13.4Q165.99-11.5 165.99-8.45L165.99-8.45Q165.99-4.45 163.34-1.98 160.69 0.5 155.34 0.5L155.34 0.5Q151.79 0.5 148.89-0.7 145.99-1.9 145.99-4L145.99-4Q145.99-5.4 146.66-6.95 147.34-8.5 148.04-9Z" opacity="1" transform="matrix(1,0,0,1,0,0)" fill="#3d4950" class="undefined-text-0" data-fill-palette-color="primary" id="text-0"></path></svg></g></svg></g></svg></g></svg></g><g transform="matrix(1,0,0,1,415.8086154351405,0)"><svg viewBox="0 0 118.77050835902085 118.77050835902085" height="118.77050835902085" width="118.77050835902085"><g data-palette-color="#ff4993"><rect width="32.4639389514657" height="118.77050835902085" fill="#ff4993" stroke="transparent" data-fill-palette-color="accent" x="0" fill-opacity="1"></rect><rect width="32.4639389514657" height="118.77050835902085" fill="#ff4993" stroke="transparent" data-fill-palette-color="accent" x="39.59016945300695" fill-opacity="0.75"></rect><rect width="32.4639389514657" height="118.77050835902085" fill="#ff4993" stroke="transparent" data-fill-palette-color="accent" x="79.1803389060139" fill-opacity="0.5"></rect></g></svg></g></svg></g></svg><rect width="395.5199999999999" height="87.87494568203151" fill="transparent" stroke="transparent"></rect></g></svg></g></svg>